<svg width="260" height="52" viewBox="0 0 260 52" fill="none" xmlns="http://www.w3.org/2000/svg">
<path opacity="0.8" fill-rule="evenodd" clip-rule="evenodd" d="M24 39.5054C31.5111 39.5054 37.6 33.4587 37.6 25.9998C37.6 18.5409 31.5111 12.4943 24 12.4943C16.4889 12.4943 10.4 18.5409 10.4 25.9998C10.4 33.4587 16.4889 39.5054 24 39.5054ZM24 49.8332C37.2548 49.8332 48 39.1626 48 25.9998C48 12.837 37.2548 2.1665 24 2.1665C10.7452 2.1665 0 12.837 0 25.9998C0 39.1626 10.7452 49.8332 24 49.8332Z" fill="white"/>
<path opacity="0.6" d="M24.2746 26.5219C26.774 24.0399 30.8262 24.0399 33.3256 26.5219L45.7707 38.8805C48.27 41.3625 48.27 45.3867 45.7707 47.8687C43.2713 50.3507 39.2191 50.3507 36.7197 47.8687L24.2746 35.51C21.7753 33.028 21.7753 29.0039 24.2746 26.5219Z" fill="white"/>
<path d="M27.769 38.9801L35.673 46.8292C39.4642 44.7295 42.6226 41.6388 44.7932 37.9098L36.9539 30.125C35.577 34.3927 32.1207 37.7362 27.769 38.9801Z" fill="white"/>
<path d="M62.0341 38H56.7614L64.7955 14.7273H71.1364L79.1591 38H73.8864L68.0568 20.0455H67.875L62.0341 38ZM61.7045 28.8523H74.1591V32.6932H61.7045V28.8523ZM86.2557 32.9773L86.267 27.1705H86.9716L92.5625 20.5455H98.1193L90.608 29.3182H89.4602L86.2557 32.9773ZM81.8693 38V14.7273H86.7102V38H81.8693ZM92.7784 38L87.642 30.3977L90.8693 26.9773L98.4489 38H92.7784ZM115.017 25.5227L110.585 25.7955C110.509 25.4167 110.347 25.0758 110.097 24.7727C109.847 24.4621 109.517 24.2159 109.108 24.0341C108.706 23.8447 108.225 23.75 107.665 23.75C106.915 23.75 106.282 23.9091 105.767 24.2273C105.252 24.5379 104.994 24.9545 104.994 25.4773C104.994 25.8939 105.161 26.2462 105.494 26.5341C105.828 26.822 106.4 27.053 107.21 27.2273L110.369 27.8636C112.066 28.2121 113.331 28.7727 114.165 29.5455C114.998 30.3182 115.415 31.3333 115.415 32.5909C115.415 33.7348 115.078 34.7386 114.403 35.6023C113.737 36.4659 112.82 37.1402 111.653 37.625C110.494 38.1023 109.157 38.3409 107.642 38.3409C105.331 38.3409 103.491 37.8598 102.119 36.8977C100.756 35.928 99.9564 34.6098 99.7216 32.9432L104.483 32.6932C104.627 33.3977 104.975 33.9356 105.528 34.3068C106.081 34.6705 106.79 34.8523 107.653 34.8523C108.502 34.8523 109.184 34.6894 109.699 34.3636C110.222 34.0303 110.487 33.6023 110.494 33.0795C110.487 32.6402 110.301 32.2803 109.938 32C109.574 31.7121 109.013 31.4924 108.256 31.3409L105.233 30.7386C103.528 30.3977 102.259 29.8068 101.426 28.9659C100.6 28.125 100.188 27.053 100.188 25.75C100.188 24.6288 100.491 23.6629 101.097 22.8523C101.71 22.0417 102.57 21.4167 103.676 20.9773C104.79 20.5379 106.093 20.3182 107.585 20.3182C109.79 20.3182 111.525 20.7841 112.79 21.7159C114.063 22.6477 114.805 23.9167 115.017 25.5227ZM123.44 38.3295C122.327 38.3295 121.334 38.1364 120.463 37.75C119.592 37.3561 118.902 36.7765 118.395 36.0114C117.895 35.2386 117.645 34.2765 117.645 33.125C117.645 32.1553 117.823 31.3409 118.179 30.6818C118.535 30.0227 119.02 29.4924 119.634 29.0909C120.247 28.6894 120.944 28.3864 121.724 28.1818C122.512 27.9773 123.338 27.8333 124.202 27.75C125.217 27.6439 126.035 27.5455 126.656 27.4545C127.277 27.3561 127.728 27.2121 128.009 27.0227C128.289 26.8333 128.429 26.553 128.429 26.1818V26.1136C128.429 25.3939 128.202 24.8371 127.747 24.4432C127.3 24.0492 126.664 23.8523 125.838 23.8523C124.967 23.8523 124.274 24.0455 123.759 24.4318C123.243 24.8106 122.902 25.2879 122.736 25.8636L118.259 25.5C118.486 24.4394 118.933 23.5227 119.599 22.75C120.266 21.9697 121.126 21.3712 122.179 20.9545C123.24 20.5303 124.467 20.3182 125.861 20.3182C126.83 20.3182 127.759 20.4318 128.645 20.6591C129.539 20.8864 130.33 21.2386 131.02 21.7159C131.717 22.1932 132.266 22.8068 132.668 23.5568C133.069 24.2992 133.27 25.1894 133.27 26.2273V38H128.679V35.5795H128.543C128.262 36.125 127.887 36.6061 127.418 37.0227C126.948 37.4318 126.384 37.7538 125.724 37.9886C125.065 38.2159 124.304 38.3295 123.44 38.3295ZM124.827 34.9886C125.539 34.9886 126.168 34.8485 126.713 34.5682C127.259 34.2803 127.687 33.8939 127.997 33.4091C128.308 32.9242 128.463 32.375 128.463 31.7614V29.9091C128.312 30.0076 128.103 30.0985 127.838 30.1818C127.58 30.2576 127.289 30.3295 126.963 30.3977C126.637 30.4583 126.312 30.5152 125.986 30.5682C125.66 30.6136 125.365 30.6553 125.099 30.6932C124.531 30.7765 124.035 30.9091 123.611 31.0909C123.187 31.2727 122.857 31.5189 122.622 31.8295C122.387 32.1326 122.27 32.5114 122.27 32.9659C122.27 33.625 122.509 34.1288 122.986 34.4773C123.471 34.8182 124.084 34.9886 124.827 34.9886ZM144.912 38.3409C143.124 38.3409 141.586 37.9621 140.298 37.2045C139.018 36.4394 138.033 35.3788 137.344 34.0227C136.662 32.6667 136.321 31.1061 136.321 29.3409C136.321 27.553 136.666 25.9848 137.355 24.6364C138.052 23.2803 139.041 22.2235 140.321 21.4659C141.601 20.7008 143.124 20.3182 144.889 20.3182C146.412 20.3182 147.745 20.5947 148.889 21.1477C150.033 21.7008 150.938 22.4773 151.605 23.4773C152.272 24.4773 152.639 25.6515 152.707 27H148.139C148.01 26.1288 147.67 25.428 147.116 24.8977C146.571 24.3598 145.855 24.0909 144.969 24.0909C144.219 24.0909 143.563 24.2955 143.003 24.7045C142.45 25.1061 142.018 25.6932 141.707 26.4659C141.397 27.2386 141.241 28.1742 141.241 29.2727C141.241 30.3864 141.393 31.3333 141.696 32.1136C142.007 32.8939 142.442 33.4886 143.003 33.8977C143.563 34.3068 144.219 34.5114 144.969 34.5114C145.522 34.5114 146.018 34.3977 146.457 34.1705C146.904 33.9432 147.272 33.6136 147.56 33.1818C147.855 32.7424 148.048 32.2159 148.139 31.6023H152.707C152.632 32.9356 152.268 34.1098 151.616 35.125C150.973 36.1326 150.082 36.9205 148.946 37.4886C147.81 38.0568 146.465 38.3409 144.912 38.3409ZM160.784 38.3295C159.67 38.3295 158.678 38.1364 157.807 37.75C156.936 37.3561 156.246 36.7765 155.739 36.0114C155.239 35.2386 154.989 34.2765 154.989 33.125C154.989 32.1553 155.167 31.3409 155.523 30.6818C155.879 30.0227 156.364 29.4924 156.977 29.0909C157.591 28.6894 158.288 28.3864 159.068 28.1818C159.856 27.9773 160.682 27.8333 161.545 27.75C162.561 27.6439 163.379 27.5455 164 27.4545C164.621 27.3561 165.072 27.2121 165.352 27.0227C165.633 26.8333 165.773 26.553 165.773 26.1818V26.1136C165.773 25.3939 165.545 24.8371 165.091 24.4432C164.644 24.0492 164.008 23.8523 163.182 23.8523C162.311 23.8523 161.617 24.0455 161.102 24.4318C160.587 24.8106 160.246 25.2879 160.08 25.8636L155.602 25.5C155.83 24.4394 156.277 23.5227 156.943 22.75C157.61 21.9697 158.47 21.3712 159.523 20.9545C160.583 20.5303 161.811 20.3182 163.205 20.3182C164.174 20.3182 165.102 20.4318 165.989 20.6591C166.883 20.8864 167.674 21.2386 168.364 21.7159C169.061 22.1932 169.61 22.8068 170.011 23.5568C170.413 24.2992 170.614 25.1894 170.614 26.2273V38H166.023V35.5795H165.886C165.606 36.125 165.231 36.6061 164.761 37.0227C164.292 37.4318 163.727 37.7538 163.068 37.9886C162.409 38.2159 161.648 38.3295 160.784 38.3295ZM162.17 34.9886C162.883 34.9886 163.511 34.8485 164.057 34.5682C164.602 34.2803 165.03 33.8939 165.341 33.4091C165.652 32.9242 165.807 32.375 165.807 31.7614V29.9091C165.655 30.0076 165.447 30.0985 165.182 30.1818C164.924 30.2576 164.633 30.3295 164.307 30.3977C163.981 30.4583 163.655 30.5152 163.33 30.5682C163.004 30.6136 162.708 30.6553 162.443 30.6932C161.875 30.7765 161.379 30.9091 160.955 31.0909C160.53 31.2727 160.201 31.5189 159.966 31.8295C159.731 32.1326 159.614 32.5114 159.614 32.9659C159.614 33.625 159.852 34.1288 160.33 34.4773C160.814 34.8182 161.428 34.9886 162.17 34.9886ZM180.801 38.2841C179.475 38.2841 178.275 37.9432 177.199 37.2614C176.131 36.572 175.282 35.5606 174.653 34.2273C174.032 32.8864 173.722 31.2424 173.722 29.2955C173.722 27.2955 174.044 25.6326 174.688 24.3068C175.331 22.9735 176.188 21.9773 177.256 21.3182C178.331 20.6515 179.509 20.3182 180.79 20.3182C181.767 20.3182 182.581 20.4848 183.233 20.8182C183.892 21.1439 184.422 21.553 184.824 22.0455C185.233 22.5303 185.544 23.0076 185.756 23.4773H185.903V14.7273H190.733V38H185.96V35.2045H185.756C185.528 35.6894 185.206 36.1705 184.79 36.6477C184.381 37.1174 183.847 37.5076 183.188 37.8182C182.536 38.1288 181.741 38.2841 180.801 38.2841ZM182.335 34.4318C183.116 34.4318 183.775 34.2197 184.312 33.7955C184.858 33.3636 185.275 32.7614 185.562 31.9886C185.858 31.2159 186.006 30.3106 186.006 29.2727C186.006 28.2348 185.862 27.3333 185.574 26.5682C185.286 25.803 184.869 25.2121 184.324 24.7955C183.778 24.3788 183.116 24.1705 182.335 24.1705C181.54 24.1705 180.869 24.3864 180.324 24.8182C179.778 25.25 179.366 25.8485 179.085 26.6136C178.805 27.3788 178.665 28.2652 178.665 29.2727C178.665 30.2879 178.805 31.1856 179.085 31.9659C179.373 32.7386 179.786 33.3447 180.324 33.7841C180.869 34.2159 181.54 34.4318 182.335 34.4318ZM202.668 38.3409C200.872 38.3409 199.327 37.9773 198.031 37.25C196.743 36.5152 195.751 35.4773 195.054 34.1364C194.357 32.7879 194.009 31.1932 194.009 29.3523C194.009 27.5568 194.357 25.9811 195.054 24.625C195.751 23.2689 196.732 22.2121 197.997 21.4545C199.27 20.697 200.762 20.3182 202.474 20.3182C203.626 20.3182 204.698 20.5038 205.69 20.875C206.69 21.2386 207.562 21.7879 208.304 22.5227C209.054 23.2576 209.637 24.1818 210.054 25.2955C210.471 26.4015 210.679 27.697 210.679 29.1818V30.5114H195.94V27.5114H206.122C206.122 26.8144 205.971 26.197 205.668 25.6591C205.365 25.1212 204.944 24.7008 204.406 24.3977C203.876 24.0871 203.259 23.9318 202.554 23.9318C201.819 23.9318 201.168 24.1023 200.599 24.4432C200.039 24.7765 199.599 25.2273 199.281 25.7955C198.963 26.3561 198.8 26.9811 198.793 27.6705V30.5227C198.793 31.3864 198.952 32.1326 199.27 32.7614C199.596 33.3902 200.054 33.875 200.645 34.2159C201.236 34.5568 201.937 34.7273 202.747 34.7273C203.285 34.7273 203.777 34.6515 204.224 34.5C204.671 34.3485 205.054 34.1212 205.372 33.8182C205.69 33.5152 205.933 33.1439 206.099 32.7045L210.577 33C210.349 34.0758 209.884 35.0152 209.179 35.8182C208.482 36.6136 207.58 37.2348 206.474 37.6818C205.376 38.1212 204.107 38.3409 202.668 38.3409ZM213.838 38V20.5455H218.452V23.625H218.656C219.02 22.6023 219.626 21.7955 220.474 21.2045C221.323 20.6136 222.338 20.3182 223.52 20.3182C224.717 20.3182 225.736 20.6174 226.577 21.2159C227.418 21.8068 227.978 22.6098 228.259 23.625H228.44C228.796 22.625 229.44 21.8258 230.372 21.2273C231.312 20.6212 232.421 20.3182 233.702 20.3182C235.33 20.3182 236.652 20.8371 237.668 21.875C238.69 22.9053 239.202 24.3674 239.202 26.2614V38H234.372V27.2159C234.372 26.2462 234.115 25.5189 233.599 25.0341C233.084 24.5492 232.44 24.3068 231.668 24.3068C230.789 24.3068 230.103 24.5871 229.611 25.1477C229.118 25.7008 228.872 26.4318 228.872 27.3409V38H224.179V27.1136C224.179 26.2576 223.933 25.5758 223.44 25.0682C222.955 24.5606 222.315 24.3068 221.52 24.3068C220.982 24.3068 220.497 24.4432 220.065 24.7159C219.641 24.9811 219.304 25.3561 219.054 25.8409C218.804 26.3182 218.679 26.8788 218.679 27.5227V38H213.838ZM245.389 44.5455C244.776 44.5455 244.2 44.4962 243.662 44.3977C243.132 44.3068 242.692 44.1894 242.344 44.0455L243.435 40.4318C244.003 40.6061 244.514 40.7008 244.969 40.7159C245.431 40.7311 245.829 40.625 246.162 40.3977C246.503 40.1705 246.779 39.7841 246.991 39.2386L247.276 38.5L241.014 20.5455H246.105L249.719 33.3636H249.901L253.548 20.5455H258.673L251.889 39.8864C251.563 40.8258 251.12 41.6439 250.56 42.3409C250.007 43.0455 249.306 43.5871 248.457 43.9659C247.609 44.3523 246.586 44.5455 245.389 44.5455Z" fill="white"/>
</svg>
