<svg width="149" height="28" viewBox="0 0 149 28" fill="none" xmlns="http://www.w3.org/2000/svg">
<path fill-rule="evenodd" clip-rule="evenodd" d="M13 21.2721C17.0685 21.2721 20.3667 18.0162 20.3667 13.9998C20.3667 9.9835 17.0685 6.72762 13 6.72762C8.9315 6.72762 5.63333 9.9835 5.63333 13.9998C5.63333 18.0162 8.9315 21.2721 13 21.2721ZM13 26.8332C20.1797 26.8332 26 21.0875 26 13.9998C26 6.91218 20.1797 1.1665 13 1.1665C5.8203 1.1665 0 6.91218 0 13.9998C0 21.0875 5.8203 26.8332 13 26.8332Z" fill="#007A98"/>
<path d="M13.1487 14.2807C14.5026 12.9443 16.6975 12.9443 18.0513 14.2807L24.7924 20.9354C26.1462 22.2718 26.1462 24.4387 24.7924 25.7751C23.4386 27.1116 21.2436 27.1116 19.8898 25.7751L13.1487 19.1205C11.7949 17.784 11.7949 15.6172 13.1487 14.2807Z" fill="#EC4899"/>
<path d="M15.0416 20.9893L19.3229 25.2158C21.3764 24.0852 23.0873 22.4209 24.263 20.413L20.0167 16.2212C19.2709 18.5192 17.3987 20.3196 15.0416 20.9893Z" fill="#2C5E0C"/>
<path d="M37.3942 21H34.4283L38.9474 7.90909H42.5142L47.027 21H44.0611L40.782 10.9006H40.6797L37.3942 21ZM37.2088 15.8544H44.2145V18.0149H37.2088V15.8544ZM51.0188 18.1747L51.0252 14.9084H51.4215L54.5664 11.1818H57.6921L53.467 16.1165H52.8214L51.0188 18.1747ZM48.5515 21V7.90909H51.2745V21H48.5515ZM54.6879 21L51.7987 16.7237L53.614 14.7997L57.8775 21H54.6879ZM67.1971 13.9815L64.7042 14.1349C64.6616 13.9219 64.57 13.7301 64.4293 13.5597C64.2887 13.3849 64.1033 13.2464 63.8732 13.1442C63.6474 13.0376 63.3768 12.9844 63.0614 12.9844C62.6396 12.9844 62.2837 13.0739 61.994 13.2528C61.7042 13.4276 61.5593 13.6619 61.5593 13.956C61.5593 14.1903 61.6531 14.3885 61.8406 14.5504C62.0281 14.7124 62.3498 14.8423 62.8058 14.9403L64.5827 15.2983C65.5373 15.4943 66.2489 15.8097 66.7177 16.2443C67.1864 16.679 67.4208 17.25 67.4208 17.9574C67.4208 18.6009 67.2312 19.1655 66.8519 19.6513C66.4769 20.1371 65.9613 20.5163 65.305 20.7891C64.6531 21.0575 63.9009 21.1918 63.0487 21.1918C61.7489 21.1918 60.7134 20.9212 59.9421 20.38C59.1751 19.8345 58.7255 19.093 58.5934 18.1555L61.2717 18.0149C61.3526 18.4112 61.5487 18.7138 61.8597 18.9226C62.1708 19.1271 62.5692 19.2294 63.055 19.2294C63.5323 19.2294 63.9158 19.1378 64.2056 18.9545C64.4996 18.767 64.6488 18.5263 64.6531 18.2322C64.6488 17.9851 64.5444 17.7827 64.3398 17.625C64.1353 17.4631 63.82 17.3395 63.3938 17.2543L61.6935 16.9155C60.7347 16.7237 60.021 16.3913 59.5522 15.9183C59.0877 15.4453 58.8555 14.8423 58.8555 14.1094C58.8555 13.4787 59.0259 12.9354 59.3668 12.4794C59.712 12.0234 60.1957 11.6719 60.8178 11.4247C61.4442 11.1776 62.1772 11.054 63.0167 11.054C64.2567 11.054 65.2326 11.3161 65.9442 11.8402C66.6602 12.3643 67.0778 13.0781 67.1971 13.9815ZM71.9352 21.1854C71.3088 21.1854 70.7505 21.0767 70.2605 20.8594C69.7704 20.6378 69.3826 20.3118 69.0971 19.8814C68.8159 19.4467 68.6752 18.9055 68.6752 18.2578C68.6752 17.7124 68.7754 17.2543 68.9757 16.8835C69.176 16.5128 69.4487 16.2145 69.7939 15.9886C70.139 15.7628 70.5311 15.5923 70.97 15.4773C71.4132 15.3622 71.8777 15.2812 72.3635 15.2344C72.9345 15.1747 73.3947 15.1193 73.7441 15.0682C74.0936 15.0128 74.3471 14.9318 74.5048 14.8253C74.6625 14.7187 74.7413 14.5611 74.7413 14.3523V14.3139C74.7413 13.9091 74.6135 13.5959 74.3578 13.3743C74.1064 13.1527 73.7484 13.0419 73.2839 13.0419C72.7939 13.0419 72.4039 13.1506 72.1142 13.3679C71.8244 13.581 71.6326 13.8494 71.5389 14.1733L69.0204 13.9688C69.1483 13.3722 69.3997 12.8565 69.7747 12.4219C70.1497 11.983 70.6333 11.6463 71.2257 11.4119C71.8223 11.1733 72.5126 11.054 73.2967 11.054C73.8422 11.054 74.3642 11.1179 74.8627 11.2457C75.3656 11.3736 75.8109 11.5717 76.1987 11.8402C76.5907 12.1087 76.8997 12.4538 77.1255 12.8757C77.3514 13.2933 77.4643 13.794 77.4643 14.3778V21H74.8819V19.6385H74.8052C74.6475 19.9453 74.4366 20.2159 74.1724 20.4503C73.9082 20.6804 73.5907 20.8615 73.22 20.9936C72.8493 21.1214 72.421 21.1854 71.9352 21.1854ZM72.715 19.3061C73.1156 19.3061 73.4693 19.2273 73.7761 19.0696C74.0829 18.9077 74.3237 18.6903 74.4984 18.4176C74.6731 18.1449 74.7605 17.8359 74.7605 17.4908V16.4489C74.6752 16.5043 74.5581 16.5554 74.4089 16.6023C74.264 16.6449 74.1 16.6854 73.9167 16.7237C73.7335 16.7578 73.5502 16.7898 73.367 16.8196C73.1838 16.8452 73.0176 16.8686 72.8684 16.8899C72.5488 16.9368 72.2697 17.0114 72.0311 17.1136C71.7924 17.2159 71.6071 17.3544 71.475 17.5291C71.3429 17.6996 71.2768 17.9126 71.2768 18.1683C71.2768 18.5391 71.411 18.8224 71.6795 19.0185C71.9522 19.2102 72.2974 19.3061 72.715 19.3061ZM84.013 21.1918C83.0073 21.1918 82.1422 20.9787 81.4178 20.5526C80.6976 20.1222 80.1436 19.5256 79.7559 18.7628C79.3723 18 79.1806 17.1222 79.1806 16.1293C79.1806 15.1236 79.3745 14.2415 79.7623 13.483C80.1543 12.7202 80.7104 12.1257 81.4306 11.6996C82.1507 11.2692 83.0073 11.054 84.0002 11.054C84.8567 11.054 85.6067 11.2095 86.2502 11.5206C86.8936 11.8317 87.4029 12.2685 87.7779 12.831C88.1529 13.3935 88.3596 14.054 88.3979 14.8125H85.8283C85.7559 14.3224 85.5641 13.9283 85.253 13.63C84.9462 13.3274 84.5435 13.1761 84.0449 13.1761C83.623 13.1761 83.2544 13.2912 82.9391 13.5213C82.628 13.7472 82.3851 14.0774 82.2104 14.5121C82.0357 14.9467 81.9483 15.473 81.9483 16.0909C81.9483 16.7173 82.0336 17.25 82.204 17.6889C82.3787 18.1278 82.6238 18.4624 82.9391 18.6925C83.2544 18.9226 83.623 19.0376 84.0449 19.0376C84.356 19.0376 84.6351 18.9737 84.8823 18.8459C85.1337 18.718 85.3404 18.5327 85.5023 18.2898C85.6685 18.0426 85.7772 17.7464 85.8283 17.4013H88.3979C88.3553 18.1513 88.1507 18.8118 87.7843 19.3828C87.4221 19.9496 86.9213 20.3928 86.2821 20.7124C85.6429 21.032 84.8865 21.1918 84.013 21.1918ZM92.9411 21.1854C92.3146 21.1854 91.7564 21.0767 91.2663 20.8594C90.7763 20.6378 90.3885 20.3118 90.103 19.8814C89.8217 19.4467 89.6811 18.9055 89.6811 18.2578C89.6811 17.7124 89.7813 17.2543 89.9815 16.8835C90.1818 16.5128 90.4545 16.2145 90.7997 15.9886C91.1449 15.7628 91.5369 15.5923 91.9759 15.4773C92.419 15.3622 92.8835 15.2812 93.3693 15.2344C93.9403 15.1747 94.4006 15.1193 94.75 15.0682C95.0994 15.0128 95.353 14.9318 95.5107 14.8253C95.6683 14.7187 95.7472 14.5611 95.7472 14.3523V14.3139C95.7472 13.9091 95.6193 13.5959 95.3636 13.3743C95.1122 13.1527 94.7543 13.0419 94.2898 13.0419C93.7997 13.0419 93.4098 13.1506 93.12 13.3679C92.8303 13.581 92.6385 13.8494 92.5447 14.1733L90.0263 13.9688C90.1541 13.3722 90.4055 12.8565 90.7805 12.4219C91.1555 11.983 91.6392 11.6463 92.2315 11.4119C92.8281 11.1733 93.5185 11.054 94.3026 11.054C94.848 11.054 95.37 11.1179 95.8686 11.2457C96.3714 11.3736 96.8168 11.5717 97.2045 11.8402C97.5966 12.1087 97.9055 12.4538 98.1314 12.8757C98.3572 13.2933 98.4702 13.794 98.4702 14.3778V21H95.8878V19.6385H95.8111C95.6534 19.9453 95.4425 20.2159 95.1783 20.4503C94.9141 20.6804 94.5966 20.8615 94.2259 20.9936C93.8551 21.1214 93.4268 21.1854 92.9411 21.1854ZM93.7209 19.3061C94.1214 19.3061 94.4751 19.2273 94.782 19.0696C95.0888 18.9077 95.3295 18.6903 95.5043 18.4176C95.679 18.1449 95.7663 17.8359 95.7663 17.4908V16.4489C95.6811 16.5043 95.5639 16.5554 95.4148 16.6023C95.2699 16.6449 95.1058 16.6854 94.9226 16.7237C94.7393 16.7578 94.5561 16.7898 94.3729 16.8196C94.1896 16.8452 94.0234 16.8686 93.8743 16.8899C93.5547 16.9368 93.2756 17.0114 93.0369 17.1136C92.7983 17.2159 92.6129 17.3544 92.4808 17.5291C92.3487 17.6996 92.2827 17.9126 92.2827 18.1683C92.2827 18.5391 92.4169 18.8224 92.6854 19.0185C92.9581 19.2102 93.3033 19.3061 93.7209 19.3061ZM104.201 21.1598C103.455 21.1598 102.779 20.968 102.174 20.5845C101.574 20.1967 101.096 19.6278 100.743 18.8778C100.393 18.1236 100.218 17.1989 100.218 16.1037C100.218 14.9787 100.4 14.0433 100.762 13.2976C101.124 12.5476 101.605 11.9872 102.206 11.6165C102.811 11.2415 103.474 11.054 104.194 11.054C104.744 11.054 105.202 11.1477 105.569 11.3352C105.939 11.5185 106.238 11.7486 106.463 12.0256C106.694 12.2983 106.868 12.5668 106.988 12.831H107.071V7.90909H109.787V21H107.103V19.4276H106.988C106.86 19.7003 106.679 19.9709 106.444 20.2393C106.214 20.5036 105.914 20.723 105.543 20.8977C105.176 21.0724 104.729 21.1598 104.201 21.1598ZM105.064 18.9929C105.502 18.9929 105.873 18.8736 106.176 18.6349C106.483 18.392 106.717 18.0533 106.879 17.6186C107.045 17.1839 107.128 16.6747 107.128 16.0909C107.128 15.5071 107.047 15 106.885 14.5696C106.723 14.1392 106.489 13.8068 106.182 13.5724C105.875 13.3381 105.502 13.2209 105.064 13.2209C104.616 13.2209 104.239 13.3423 103.932 13.5852C103.625 13.8281 103.393 14.1648 103.235 14.5952C103.078 15.0256 102.999 15.5241 102.999 16.0909C102.999 16.6619 103.078 17.1669 103.235 17.6058C103.397 18.0405 103.63 18.3814 103.932 18.6286C104.239 18.8714 104.616 18.9929 105.064 18.9929ZM116.501 21.1918C115.491 21.1918 114.621 20.9872 113.893 20.5781C113.168 20.1648 112.61 19.581 112.218 18.8267C111.826 18.0682 111.63 17.1712 111.63 16.1357C111.63 15.1257 111.826 14.2393 112.218 13.4766C112.61 12.7138 113.162 12.1193 113.873 11.6932C114.589 11.267 115.429 11.054 116.392 11.054C117.04 11.054 117.643 11.1584 118.201 11.3672C118.763 11.5717 119.253 11.8807 119.671 12.294C120.093 12.7074 120.421 13.2273 120.655 13.8537C120.89 14.4759 121.007 15.2045 121.007 16.0398V16.7876H112.716V15.1001H118.444C118.444 14.7081 118.358 14.3608 118.188 14.0582C118.018 13.7557 117.781 13.5192 117.479 13.3487C117.18 13.174 116.833 13.0866 116.437 13.0866C116.023 13.0866 115.657 13.1825 115.337 13.3743C115.022 13.5618 114.775 13.8153 114.596 14.1349C114.417 14.4503 114.325 14.8018 114.321 15.1896V16.794C114.321 17.2798 114.41 17.6996 114.589 18.0533C114.773 18.407 115.03 18.6797 115.363 18.8714C115.695 19.0632 116.089 19.1591 116.545 19.1591C116.848 19.1591 117.125 19.1165 117.376 19.0312C117.628 18.946 117.843 18.8182 118.022 18.6477C118.201 18.4773 118.337 18.2685 118.431 18.0213L120.949 18.1875C120.822 18.7926 120.559 19.321 120.163 19.7727C119.771 20.2202 119.264 20.5696 118.642 20.821C118.024 21.0682 117.31 21.1918 116.501 21.1918ZM122.784 21V11.1818H125.379V12.9141H125.494C125.699 12.3388 126.04 11.8849 126.517 11.5526C126.994 11.2202 127.565 11.054 128.23 11.054C128.903 11.054 129.476 11.2223 129.949 11.5589C130.422 11.8913 130.738 12.343 130.895 12.9141H130.998C131.198 12.3516 131.56 11.902 132.084 11.5653C132.613 11.2244 133.237 11.054 133.957 11.054C134.873 11.054 135.617 11.3459 136.188 11.9297C136.763 12.5092 137.051 13.3317 137.051 14.397V21H134.334V14.9339C134.334 14.3885 134.189 13.9794 133.9 13.7067C133.61 13.4339 133.248 13.2976 132.813 13.2976C132.319 13.2976 131.933 13.4553 131.656 13.7706C131.379 14.0817 131.241 14.4929 131.241 15.0043V21H128.601V14.8764C128.601 14.3949 128.462 14.0114 128.185 13.7259C127.912 13.4403 127.552 13.2976 127.105 13.2976C126.802 13.2976 126.53 13.3743 126.287 13.5277C126.048 13.6768 125.858 13.8878 125.718 14.1605C125.577 14.429 125.507 14.7443 125.507 15.1065V21H122.784ZM140.531 24.6818C140.186 24.6818 139.862 24.6541 139.56 24.5987C139.262 24.5476 139.014 24.4815 138.818 24.4006L139.432 22.3679C139.752 22.4659 140.039 22.5192 140.295 22.5277C140.555 22.5362 140.779 22.4766 140.966 22.3487C141.158 22.2209 141.313 22.0036 141.433 21.6967L141.593 21.2812L138.07 11.1818H140.934L142.967 18.392H143.069L145.121 11.1818H148.004L144.188 22.0611C144.004 22.5895 143.755 23.0497 143.44 23.4418C143.129 23.8381 142.735 24.1428 142.257 24.3558C141.78 24.5732 141.205 24.6818 140.531 24.6818Z" fill="#0F172A"/>
</svg>
