<svg width="26" height="28" viewBox="0 0 26 28" fill="none" xmlns="http://www.w3.org/2000/svg">
<path fill-rule="evenodd" clip-rule="evenodd" d="M13 21.2721C17.0685 21.2721 20.3667 18.0162 20.3667 13.9998C20.3667 9.9835 17.0685 6.72762 13 6.72762C8.9315 6.72762 5.63333 9.9835 5.63333 13.9998C5.63333 18.0162 8.9315 21.2721 13 21.2721ZM13 26.8332C20.1797 26.8332 26 21.0875 26 13.9998C26 6.91218 20.1797 1.1665 13 1.1665C5.8203 1.1665 0 6.91218 0 13.9998C0 21.0875 5.8203 26.8332 13 26.8332Z" fill="#007A98"/>
<path d="M13.1487 14.2807C14.5026 12.9443 16.6975 12.9443 18.0513 14.2807L24.7924 20.9354C26.1462 22.2718 26.1462 24.4387 24.7924 25.7751C23.4386 27.1116 21.2436 27.1116 19.8898 25.7751L13.1487 19.1205C11.7949 17.784 11.7949 15.6172 13.1487 14.2807Z" fill="#EC4899"/>
<path d="M15.0416 20.9893L19.3229 25.2158C21.3764 24.0852 23.0873 22.4209 24.263 20.413L20.0167 16.2212C19.2709 18.5192 17.3987 20.3196 15.0416 20.9893Z" fill="#2C5E0C"/>
</svg>
