<svg width="12" height="14" viewBox="0 0 12 14" fill="none" xmlns="http://www.w3.org/2000/svg">
<path d="M11.7467 4.63317C11.0467 1.55317 8.36 0.166504 6 0.166504C6 0.166504 6 0.166504 5.99334 0.166504C3.64 0.166504 0.946669 1.5465 0.246669 4.6265C-0.533331 8.0665 1.57334 10.9798 3.48 12.8132C4.18667 13.4932 5.09334 13.8332 6 13.8332C6.90667 13.8332 7.81334 13.4932 8.51334 12.8132C10.42 10.9798 12.5267 8.07317 11.7467 4.63317ZM6 7.97317C4.84 7.97317 3.9 7.03317 3.9 5.87317C3.9 4.71317 4.84 3.77317 6 3.77317C7.16 3.77317 8.1 4.71317 8.1 5.87317C8.1 7.03317 7.16 7.97317 6 7.97317Z" fill="#64748B"/>
</svg>
