<svg width="24" height="24" viewBox="0 0 24 24" fill="none" xmlns="http://www.w3.org/2000/svg">
<path d="M11 20.25C5.89614 20.25 1.75 16.1039 1.75 11C1.75 5.89614 5.89614 1.75 11 1.75C16.1039 1.75 20.25 5.89614 20.25 11C20.25 16.1039 16.1039 20.25 11 20.25ZM11 2.25C6.17386 2.25 2.25 6.17386 2.25 11C2.25 15.8261 6.17386 19.75 11 19.75C15.8261 19.75 19.75 15.8261 19.75 11C19.75 6.17386 15.8261 2.25 11 2.25Z" fill="#0F172A" stroke="#0F172A"/>
<path d="M20.0007 22.275L20.0007 22.275L19.9933 22.274C19.8323 22.2535 19.5937 22.1873 19.347 21.989C19.1014 21.7917 18.8186 21.4399 18.6042 20.8014C18.3976 20.1813 18.4828 19.6033 18.7859 19.182C19.0871 18.7632 19.6137 18.5 20.27 18.5C21.176 18.5 21.7619 18.842 22.0067 19.3113C22.2589 19.7946 22.2242 20.4768 21.7247 21.2215L21.7247 21.2215L21.7234 21.2235C21.1019 22.1601 20.4852 22.29 20.16 22.29C20.1177 22.29 20.0672 22.2845 20.0007 22.275ZM21.3118 20.9537L21.3118 20.9537L21.3145 20.9496C21.4864 20.6948 21.5946 20.4518 21.6435 20.228C21.6901 20.0145 21.6913 19.7745 21.5872 19.5664C21.4723 19.3365 21.2506 19.2013 21.0524 19.1255C20.8383 19.0436 20.575 19 20.27 19C19.8591 19 19.4564 19.1347 19.2028 19.4663L19.197 19.4739L19.1915 19.4817C18.9478 19.827 18.9559 20.269 19.0859 20.649C19.1837 20.9468 19.3087 21.1943 19.4515 21.3811C19.5761 21.5442 19.7832 21.7505 20.068 21.7861C20.3483 21.8212 20.5989 21.6772 20.7605 21.5549C20.9469 21.4138 21.1346 21.2108 21.3118 20.9537Z" fill="#0F172A" stroke="#0F172A"/>
</svg>
